<mxfile host="app.diagrams.net" modified="2021-08-22T13:01:42.720Z" agent="5.0 (Windows NT 10.0; Win64; x64) AppleWebKit/537.36 (KHTML, like Gecko) Chrome/92.0.4515.159 Safari/537.36" etag="oNmMO_4ujEPjpNI29aXU" version="14.9.8" type="github">
  <diagram id="C5RBs43oDa-KdzZeNtuy" name="Page-1">
    <mxGraphModel dx="1422" dy="762" grid="1" gridSize="10" guides="1" tooltips="1" connect="1" arrows="1" fold="1" page="1" pageScale="1" pageWidth="827" pageHeight="1169" background="none" math="1" shadow="0">
      <root>
        <mxCell id="WIyWlLk6GJQsqaUBKTNV-0" />
        <mxCell id="WIyWlLk6GJQsqaUBKTNV-1" parent="WIyWlLk6GJQsqaUBKTNV-0" />
        <mxCell id="nSisR4guIrfHE9iIkY8Y-0" value="NUM1" style="html=1;strokeWidth=2;shape=manualInput;whiteSpace=wrap;rounded=1;size=26;arcSize=11;verticalAlign=middle;align=center;" parent="WIyWlLk6GJQsqaUBKTNV-1" vertex="1">
          <mxGeometry x="80" y="260" width="100" height="60" as="geometry" />
        </mxCell>
        <mxCell id="nSisR4guIrfHE9iIkY8Y-1" value="&lt;font style=&quot;font-size: 15px&quot;&gt;INICIO&lt;/font&gt;" style="strokeWidth=2;html=1;shape=mxgraph.flowchart.start_2;whiteSpace=wrap;verticalAlign=middle;align=center;" parent="WIyWlLk6GJQsqaUBKTNV-1" vertex="1">
          <mxGeometry x="80" y="130" width="100" height="100" as="geometry" />
        </mxCell>
        <mxCell id="nSisR4guIrfHE9iIkY8Y-5" value="" style="endArrow=classic;html=1;exitX=0.5;exitY=1;exitDx=0;exitDy=0;exitPerimeter=0;entryX=0.5;entryY=0.225;entryDx=0;entryDy=0;entryPerimeter=0;" parent="WIyWlLk6GJQsqaUBKTNV-1" source="nSisR4guIrfHE9iIkY8Y-1" target="nSisR4guIrfHE9iIkY8Y-0" edge="1">
          <mxGeometry width="50" height="50" relative="1" as="geometry">
            <mxPoint x="36" y="340" as="sourcePoint" />
            <mxPoint x="130" y="270" as="targetPoint" />
          </mxGeometry>
        </mxCell>
        <mxCell id="nSisR4guIrfHE9iIkY8Y-6" value="" style="endArrow=classic;html=1;exitX=0.5;exitY=1;exitDx=0;exitDy=0;entryX=0.496;entryY=0.22;entryDx=0;entryDy=0;entryPerimeter=0;" parent="WIyWlLk6GJQsqaUBKTNV-1" source="nSisR4guIrfHE9iIkY8Y-0" edge="1">
          <mxGeometry width="50" height="50" relative="1" as="geometry">
            <mxPoint x="129" y="330.0000000000001" as="sourcePoint" />
            <mxPoint x="129.60000000000002" y="373.20000000000005" as="targetPoint" />
          </mxGeometry>
        </mxCell>
        <mxCell id="pyFOSILM-I7uizpb-qyc-0" value="MEDIA" style="strokeWidth=2;html=1;shape=mxgraph.flowchart.display;whiteSpace=wrap;" parent="WIyWlLk6GJQsqaUBKTNV-1" vertex="1">
          <mxGeometry x="80" y="770" width="100" height="60" as="geometry" />
        </mxCell>
        <mxCell id="pyFOSILM-I7uizpb-qyc-3" value="&#xa;&#xa;&lt;div style=&quot;font-family: consolas, &amp;quot;courier new&amp;quot;, monospace; font-weight: normal; font-size: 15px; line-height: 20px;&quot;&gt;&lt;div&gt;&lt;span style=&quot;&quot;&gt;printf&lt;/span&gt;&lt;span style=&quot;&quot;&gt;(&lt;/span&gt;&lt;span style=&quot;&quot;&gt;&quot;Digite&amp;nbsp;o&amp;nbsp;primeiro&amp;nbsp;numero:&amp;nbsp;&quot;&lt;/span&gt;&lt;span style=&quot;&quot;&gt;);&lt;/span&gt;&lt;/div&gt;&lt;div&gt;&lt;span style=&quot;&quot;&gt;scanf&lt;/span&gt;&lt;span style=&quot;&quot;&gt;(&lt;/span&gt;&lt;span style=&quot;&quot;&gt;&quot;&lt;/span&gt;&lt;span style=&quot;&quot;&gt;%i&lt;/span&gt;&lt;span style=&quot;&quot;&gt;&quot;&lt;/span&gt;&lt;span style=&quot;&quot;&gt;,&amp;amp;&lt;/span&gt;&lt;span style=&quot;&quot;&gt;num1&lt;/span&gt;&lt;span style=&quot;&quot;&gt;);&lt;/span&gt;&lt;/div&gt;&lt;/div&gt;&#xa;&#xa;" style="text;html=1;strokeColor=none;fillColor=none;align=center;verticalAlign=middle;whiteSpace=wrap;rounded=0;labelBorderColor=none;" parent="WIyWlLk6GJQsqaUBKTNV-1" vertex="1">
          <mxGeometry x="320" y="280" width="400" height="40" as="geometry" />
        </mxCell>
        <mxCell id="pyFOSILM-I7uizpb-qyc-4" value="" style="strokeWidth=2;html=1;shape=mxgraph.flowchart.annotation_2;align=left;labelPosition=right;pointerEvents=1;" parent="WIyWlLk6GJQsqaUBKTNV-1" vertex="1">
          <mxGeometry x="260" y="360" width="50" height="80" as="geometry" />
        </mxCell>
        <mxCell id="pyFOSILM-I7uizpb-qyc-6" value="" style="strokeWidth=2;html=1;shape=mxgraph.flowchart.annotation_2;align=left;labelPosition=right;pointerEvents=1;" parent="WIyWlLk6GJQsqaUBKTNV-1" vertex="1">
          <mxGeometry x="260" y="260" width="50" height="80" as="geometry" />
        </mxCell>
        <mxCell id="pyFOSILM-I7uizpb-qyc-7" value="" style="strokeWidth=2;html=1;shape=mxgraph.flowchart.annotation_2;align=left;labelPosition=right;pointerEvents=1;" parent="WIyWlLk6GJQsqaUBKTNV-1" vertex="1">
          <mxGeometry x="260" y="660" width="50" height="80" as="geometry" />
        </mxCell>
        <mxCell id="pyFOSILM-I7uizpb-qyc-10" value="&lt;div style=&quot;font-family: &amp;#34;consolas&amp;#34; , &amp;#34;courier new&amp;#34; , monospace ; font-weight: normal ; font-size: 15px ; line-height: 20px&quot;&gt;&lt;div style=&quot;font-family: &amp;#34;consolas&amp;#34; , &amp;#34;courier new&amp;#34; , monospace ; line-height: 20px&quot;&gt;media = (num1+num2+num3+num4)/4&lt;/div&gt;&lt;/div&gt;" style="text;html=1;rounded=0;align=center;verticalAlign=middle;labelBorderColor=none;whiteSpace=wrap;" parent="WIyWlLk6GJQsqaUBKTNV-1" vertex="1">
          <mxGeometry x="310" y="680" width="490" height="40" as="geometry" />
        </mxCell>
        <mxCell id="pyFOSILM-I7uizpb-qyc-12" value="&lt;div style=&quot;font-family: &amp;#34;consolas&amp;#34; , &amp;#34;courier new&amp;#34; , monospace ; font-weight: normal ; font-size: 15px ; line-height: 20px&quot;&gt;&lt;div style=&quot;font-family: &amp;#34;consolas&amp;#34; , &amp;#34;courier new&amp;#34; , monospace ; line-height: 20px&quot;&gt;&lt;div&gt;&lt;span&gt;#include&lt;/span&gt;&lt;span&gt;&amp;lt;stdio.h&amp;gt;&lt;/span&gt;&lt;/div&gt;&lt;div&gt;&lt;span&gt;#include&lt;/span&gt;&lt;span&gt;&amp;lt;stdlib.h&amp;gt;&lt;/span&gt;&lt;/div&gt;&lt;br&gt;&lt;div&gt;&lt;span&gt;int&lt;/span&gt;&amp;nbsp;&lt;span&gt;main&lt;/span&gt;(&lt;span&gt;int&lt;/span&gt;&amp;nbsp;&lt;span&gt;argc&lt;/span&gt;,&amp;nbsp;&lt;span&gt;char&lt;/span&gt;&amp;nbsp;*&lt;span&gt;argv&lt;/span&gt;&lt;span&gt;[]&lt;/span&gt;){&lt;/div&gt;&lt;div&gt;&lt;span&gt;int&lt;/span&gt;&amp;nbsp;num1,num2,num3,num4;&lt;/div&gt;&lt;/div&gt;&lt;/div&gt;" style="text;whiteSpace=wrap;html=1;rounded=0;align=center;verticalAlign=middle;labelBorderColor=none;" parent="WIyWlLk6GJQsqaUBKTNV-1" vertex="1">
          <mxGeometry x="320" y="110" width="300" height="120" as="geometry" />
        </mxCell>
        <mxCell id="pyFOSILM-I7uizpb-qyc-13" value="" style="strokeWidth=2;html=1;shape=mxgraph.flowchart.annotation_2;align=left;labelPosition=right;pointerEvents=1;" parent="WIyWlLk6GJQsqaUBKTNV-1" vertex="1">
          <mxGeometry x="260" y="140" width="50" height="80" as="geometry" />
        </mxCell>
        <mxCell id="WQtvyT2Jt8s8oRUtYBUV-0" value="MEDIA" style="rounded=1;whiteSpace=wrap;html=1;absoluteArcSize=1;arcSize=14;strokeWidth=2;align=center;verticalAlign=middle;" parent="WIyWlLk6GJQsqaUBKTNV-1" vertex="1">
          <mxGeometry x="80" y="660" width="100" height="60" as="geometry" />
        </mxCell>
        <mxCell id="WQtvyT2Jt8s8oRUtYBUV-1" value="" style="endArrow=classic;html=1;exitX=0.5;exitY=1;exitDx=0;exitDy=0;" parent="WIyWlLk6GJQsqaUBKTNV-1" edge="1">
          <mxGeometry width="50" height="50" relative="1" as="geometry">
            <mxPoint x="129.9000000000001" y="720" as="sourcePoint" />
            <mxPoint x="129.5" y="770" as="targetPoint" />
          </mxGeometry>
        </mxCell>
        <mxCell id="WQtvyT2Jt8s8oRUtYBUV-2" value="NUM2" style="html=1;strokeWidth=2;shape=manualInput;whiteSpace=wrap;rounded=1;size=26;arcSize=11;verticalAlign=middle;align=center;" parent="WIyWlLk6GJQsqaUBKTNV-1" vertex="1">
          <mxGeometry x="80" y="360" width="100" height="60" as="geometry" />
        </mxCell>
        <mxCell id="WQtvyT2Jt8s8oRUtYBUV-3" value="" style="endArrow=classic;html=1;exitX=0.5;exitY=1;exitDx=0;exitDy=0;entryX=0.498;entryY=0.236;entryDx=0;entryDy=0;entryPerimeter=0;" parent="WIyWlLk6GJQsqaUBKTNV-1" target="oTk-Pp67aPwzLTNpCu4k-0" edge="1">
          <mxGeometry width="50" height="50" relative="1" as="geometry">
            <mxPoint x="129.9" y="420" as="sourcePoint" />
            <mxPoint x="130" y="460" as="targetPoint" />
          </mxGeometry>
        </mxCell>
        <mxCell id="WQtvyT2Jt8s8oRUtYBUV-4" value="" style="strokeWidth=2;html=1;shape=mxgraph.flowchart.annotation_2;align=left;labelPosition=right;pointerEvents=1;" parent="WIyWlLk6GJQsqaUBKTNV-1" vertex="1">
          <mxGeometry x="260" y="760" width="50" height="80" as="geometry" />
        </mxCell>
        <mxCell id="WQtvyT2Jt8s8oRUtYBUV-5" value="&lt;div style=&quot;font-family: &amp;#34;consolas&amp;#34; , &amp;#34;courier new&amp;#34; , monospace ; font-weight: normal ; font-size: 15px ; line-height: 20px&quot;&gt;&lt;div style=&quot;font-family: &amp;#34;consolas&amp;#34; , &amp;#34;courier new&amp;#34; , monospace ; line-height: 20px&quot;&gt;&lt;span&gt;printf&lt;/span&gt;(&lt;span&gt;&quot;&lt;/span&gt;&lt;span style=&quot;font-family: &amp;#34;consolas&amp;#34; , &amp;#34;courier new&amp;#34; , monospace&quot;&gt;&quot;A&amp;nbsp;media&amp;nbsp;aritmetica&amp;nbsp;dos&amp;nbsp;numeros&amp;nbsp;digitados&amp;nbsp;e:&lt;/span&gt;&lt;span style=&quot;font-family: &amp;#34;consolas&amp;#34; , &amp;#34;courier new&amp;#34; , monospace&quot;&gt;%i&lt;/span&gt;&lt;span style=&quot;font-family: &amp;#34;consolas&amp;#34; , &amp;#34;courier new&amp;#34; , monospace&quot;&gt;&quot;,&lt;/span&gt;&lt;span style=&quot;font-family: &amp;#34;consolas&amp;#34; , &amp;#34;courier new&amp;#34; , monospace&quot;&gt;media&lt;/span&gt;&lt;span&gt;)&lt;/span&gt;&lt;span&gt;;&lt;/span&gt;&lt;/div&gt;&lt;/div&gt;" style="text;html=1;rounded=0;align=center;verticalAlign=middle;labelBorderColor=none;whiteSpace=wrap;" parent="WIyWlLk6GJQsqaUBKTNV-1" vertex="1">
          <mxGeometry x="317.5" y="780" width="475" height="40" as="geometry" />
        </mxCell>
        <mxCell id="oTk-Pp67aPwzLTNpCu4k-0" value="NUM3" style="html=1;strokeWidth=2;shape=manualInput;whiteSpace=wrap;rounded=1;size=26;arcSize=11;verticalAlign=middle;align=center;" parent="WIyWlLk6GJQsqaUBKTNV-1" vertex="1">
          <mxGeometry x="80" y="460" width="100" height="60" as="geometry" />
        </mxCell>
        <mxCell id="oTk-Pp67aPwzLTNpCu4k-2" value="" style="endArrow=classic;html=1;entryX=0.498;entryY=0.225;entryDx=0;entryDy=0;entryPerimeter=0;" parent="WIyWlLk6GJQsqaUBKTNV-1" target="oTk-Pp67aPwzLTNpCu4k-7" edge="1">
          <mxGeometry width="50" height="50" relative="1" as="geometry">
            <mxPoint x="130" y="520" as="sourcePoint" />
            <mxPoint x="110" y="570" as="targetPoint" />
          </mxGeometry>
        </mxCell>
        <mxCell id="oTk-Pp67aPwzLTNpCu4k-4" value="" style="strokeWidth=2;html=1;shape=mxgraph.flowchart.annotation_2;align=left;labelPosition=right;pointerEvents=1;" parent="WIyWlLk6GJQsqaUBKTNV-1" vertex="1">
          <mxGeometry x="260" y="555" width="50" height="80" as="geometry" />
        </mxCell>
        <mxCell id="oTk-Pp67aPwzLTNpCu4k-5" value="" style="strokeWidth=2;html=1;shape=mxgraph.flowchart.annotation_2;align=left;labelPosition=right;pointerEvents=1;" parent="WIyWlLk6GJQsqaUBKTNV-1" vertex="1">
          <mxGeometry x="260" y="460" width="50" height="80" as="geometry" />
        </mxCell>
        <mxCell id="oTk-Pp67aPwzLTNpCu4k-7" value="NUM4" style="html=1;strokeWidth=2;shape=manualInput;whiteSpace=wrap;rounded=1;size=26;arcSize=11;verticalAlign=middle;align=center;" parent="WIyWlLk6GJQsqaUBKTNV-1" vertex="1">
          <mxGeometry x="80" y="555" width="100" height="60" as="geometry" />
        </mxCell>
        <mxCell id="oTk-Pp67aPwzLTNpCu4k-8" value="" style="endArrow=classic;html=1;exitX=0.5;exitY=1;exitDx=0;exitDy=0;entryX=0.5;entryY=0;entryDx=0;entryDy=0;" parent="WIyWlLk6GJQsqaUBKTNV-1" target="WQtvyT2Jt8s8oRUtYBUV-0" edge="1">
          <mxGeometry width="50" height="50" relative="1" as="geometry">
            <mxPoint x="129.76000000000008" y="615" as="sourcePoint" />
            <mxPoint x="129.85999999999999" y="655" as="targetPoint" />
          </mxGeometry>
        </mxCell>
        <mxCell id="oTk-Pp67aPwzLTNpCu4k-11" value="&lt;br&gt;&lt;br&gt;&lt;div style=&quot;font-family: &amp;#34;consolas&amp;#34; , &amp;#34;courier new&amp;#34; , monospace ; font-weight: normal ; font-size: 15px ; line-height: 20px&quot;&gt;&lt;div&gt;&lt;span&gt;printf&lt;/span&gt;&lt;span&gt;(&lt;/span&gt;&lt;span&gt;&quot;Digite&amp;nbsp;o&amp;nbsp;primeiro&amp;nbsp;numero:&amp;nbsp;&quot;&lt;/span&gt;&lt;span&gt;);&lt;/span&gt;&lt;/div&gt;&lt;div&gt;&lt;span&gt;scanf&lt;/span&gt;&lt;span&gt;(&lt;/span&gt;&lt;span&gt;&quot;&lt;/span&gt;&lt;span&gt;%i&lt;/span&gt;&lt;span&gt;&quot;&lt;/span&gt;&lt;span&gt;,&amp;amp;&lt;/span&gt;&lt;span&gt;num2&lt;/span&gt;&lt;span&gt;);&lt;/span&gt;&lt;/div&gt;&lt;/div&gt;&lt;br&gt;" style="text;html=1;strokeColor=none;fillColor=none;align=center;verticalAlign=middle;whiteSpace=wrap;rounded=0;labelBorderColor=none;" parent="WIyWlLk6GJQsqaUBKTNV-1" vertex="1">
          <mxGeometry x="320" y="380" width="400" height="40" as="geometry" />
        </mxCell>
        <mxCell id="oTk-Pp67aPwzLTNpCu4k-12" value="&lt;br&gt;&lt;br&gt;&lt;div style=&quot;font-family: &amp;#34;consolas&amp;#34; , &amp;#34;courier new&amp;#34; , monospace ; font-weight: normal ; font-size: 15px ; line-height: 20px&quot;&gt;&lt;div&gt;&lt;span&gt;printf&lt;/span&gt;&lt;span&gt;(&lt;/span&gt;&lt;span&gt;&quot;Digite&amp;nbsp;o&amp;nbsp;primeiro&amp;nbsp;numero:&amp;nbsp;&quot;&lt;/span&gt;&lt;span&gt;);&lt;/span&gt;&lt;/div&gt;&lt;div&gt;&lt;span&gt;scanf&lt;/span&gt;&lt;span&gt;(&lt;/span&gt;&lt;span&gt;&quot;&lt;/span&gt;&lt;span&gt;%i&lt;/span&gt;&lt;span&gt;&quot;&lt;/span&gt;&lt;span&gt;,&amp;amp;&lt;/span&gt;&lt;span&gt;num3&lt;/span&gt;&lt;span&gt;);&lt;/span&gt;&lt;/div&gt;&lt;/div&gt;&lt;br&gt;" style="text;html=1;strokeColor=none;fillColor=none;align=center;verticalAlign=middle;whiteSpace=wrap;rounded=0;labelBorderColor=none;" parent="WIyWlLk6GJQsqaUBKTNV-1" vertex="1">
          <mxGeometry x="320" y="470" width="400" height="40" as="geometry" />
        </mxCell>
        <mxCell id="oTk-Pp67aPwzLTNpCu4k-13" value="&lt;br&gt;&lt;br&gt;&lt;div style=&quot;font-family: &amp;#34;consolas&amp;#34; , &amp;#34;courier new&amp;#34; , monospace ; font-weight: normal ; font-size: 15px ; line-height: 20px&quot;&gt;&lt;div&gt;&lt;span&gt;printf&lt;/span&gt;&lt;span&gt;(&lt;/span&gt;&lt;span&gt;&quot;Digite&amp;nbsp;o&amp;nbsp;primeiro&amp;nbsp;numero:&amp;nbsp;&quot;&lt;/span&gt;&lt;span&gt;);&lt;/span&gt;&lt;/div&gt;&lt;div&gt;&lt;span&gt;scanf&lt;/span&gt;&lt;span&gt;(&lt;/span&gt;&lt;span&gt;&quot;&lt;/span&gt;&lt;span&gt;%i&lt;/span&gt;&lt;span&gt;&quot;&lt;/span&gt;&lt;span&gt;,&amp;amp;&lt;/span&gt;&lt;span&gt;num4&lt;/span&gt;&lt;span&gt;);&lt;/span&gt;&lt;/div&gt;&lt;/div&gt;&lt;br&gt;" style="text;html=1;strokeColor=none;fillColor=none;align=center;verticalAlign=middle;whiteSpace=wrap;rounded=0;labelBorderColor=none;" parent="WIyWlLk6GJQsqaUBKTNV-1" vertex="1">
          <mxGeometry x="320" y="575" width="400" height="40" as="geometry" />
        </mxCell>
      </root>
    </mxGraphModel>
  </diagram>
</mxfile>
